<?xml version="1.0" encoding="UTF-8" standalone="no"?>
<svg xmlns="http://www.w3.org/2000/svg" width="711.18237" height="685.57092" version="1.0">
  <g font-size="12" transform="translate(-10.123271 -249.57691)">
    <circle cx="240" cy="240" r="200" fill="#fff" transform="translate(-32.17932 194.46858) scale(1.65789)"/>
    <g fill="#fff" fill-rule="evenodd" transform="translate(458.08338 -205.74712) scale(2.48684)">
      <path d="M21.6168 356.02023c-14.70915 7.27535-99.00891 31.7908-111.97814 38.67064-12.96923 6.87984-24.75194 13.28496-39.61894 18.97884-12.09957 3.00509-11.62484-4.42813-26.33393.47473-4.19128 3.32138-4.11218 8.06581-.71169 11.62427 3.95408 3.87533 6.72198 6.32704 10.20162 9.72764 1.10732 4.90286 1.26518 9.09391 1.89777 14.94565 2.3725 7.19671 7.59165 6.8012 12.099 3.32196 1.97699-2.45172 4.4287-4.66578 5.93096-7.35458 2.0562-3.55846 4.34948-7.59165 7.11749-10.91303l35.82341-18.97941 100.59038-33.45148 53.85393-25.38453c10.20123-4.03319 11.62484 1.66069 20.64011 0 6.87984-.07922 12.57372-2.76744 12.09956-9.25178-3.47981-5.14107-6.72255-8.38324-12.81137-13.9979.31629-6.01018-.79102-11.78328-3.0843-17.55581-2.3725-3.40059-6.64277-4.90342-13.04789 1.18597-6.4849 4.90286-4.42927 11.46698-12.57429 18.26761-13.28554 6.56355-25.38453 12.41586-40.09368 19.69121z"/>
      <path d="M-89.9909 383.7596c18.17357 8.94688 98.55925 32.04553 98.55925 32.04553l36.06105 18.74176c8.54054 7.43379 6.40569 12.49451 12.33665 17.08165 5.85174 5.37758 9.56864 6.24725 13.04788 1.18653 2.76801-5.7731 2.21464-11.54619 3.08488-17.79345 4.03262-3.87476 7.35457-5.85174 10.67595-9.7265 3.63768-4.03319 3.47868-8.06638-2.13599-10.91303-4.66577-1.89777-9.09391-2.84723-14.70857-1.18654-3.55903 1.10732-7.35457 1.73991-12.099-.23708l-38.90828-18.03052-110.61094-38.34465c-14.87442-7.26966-27.23215-12.69398-41.93902-20.80196-7.99628-6.37491-5.42375-13.58872-15.09765-19.45984-4.2498-2.12459-7.32528-3.07518-10.7363 2.68423-2.18084 5.14507-2.01306 10.62467-2.34857 15.93729-3.80243 4.08163-8.10815 6.48661-11.23958 11.57526-4.52941 7.26965 2.3485 9.67406 6.03912 10.56881 10.51257 2.62781 14.31495-2.12516 23.98873-.16812 18.84492 8.77932 37.85682 17.89375 56.03039 26.84063z"/>
      <path d="M-37.21931 434.42892c-10.83372 0-17.16019-.94945-27.2822-4.62645-9.8855-4.03319-19.77043-16.13219-22.30136-26.33342-1.97699-7.43379-2.53036-16.76535-.71181-24.67329-.39551-9.80572-4.58656-19.13728-8.481-29.27217-2.91288-1.73669-5.66792-3.18289-8.04955-5.29689-4.4173-3.97563-7.84184-14.24638-6.62681-26.17327.70199-4.12364 1.51635-3.18825 1.32502-10.93298-10.90562-10.60187-18.52748-29.00112-19.58522-48.87015-1.14835-21.8956 10.38246-43.63738 27.66129-56.03221 19.35897-13.62599 51.72763-17.39452 71.85426-16.37753 13.6326.00946 43.99977 7.07828 54.71904 15.06117 18.80331 13.67198 28.88714 33.07706 29.58584 55.19491 1.03323 22.21645-8.32397 39.13795-20.01099 49.24415.6221 4.07788 1.5921 8.40013 2.26984 12.38134 1.21503 11.92689-2.20951 22.19764-6.62681 26.17327-2.26718 2.01242-5.50044 3.54668-8.5733 5.46993-3.92859 10.29315-8.11964 19.62471-8.51515 29.43043 1.81855 7.90794 1.26518 17.2395-.71181 24.67329-2.53093 10.20123-12.5344 21.94461-22.4199 25.9778-9.88493 4.03319-16.21083 4.98207-27.51938 4.98207z"/>
    </g>
    <path fill-rule="evenodd" stroke-opacity=".99122799" d="M361.03902475 589.38045475c-13.741656 10.44938425-16.79866425 13.95849525-24.39228975 25.521838-2.74804775 4.46292025-7.87991 14.892463-9.2829875 21.88942625-1.40166025 6.995546-2.4518425 17.1458905-2.44759075 22.52151975.017007 18.21591425 5.81497675 29.643201 12.14724975 29.24495375 5.657662-.6491005 12.857292-6.54911225 23.7672825-19.949211m10.10357525-78.93359844c13.741656 10.44938425 16.79866425 13.95849525 24.39228975 25.521838 2.74804775 4.46292025 7.87991 14.892463 9.2829875 21.88942625 1.40166025 6.995546 2.4518425 17.1458905 2.44759075 22.52151975-.017007 18.21591425-5.81497675 29.643201-12.14724975 29.24495375-5.657662-.6491005-12.857292-6.54911225-23.7672825-19.949211M244.23172025 509.801824c19.076185-3.34329275 37.56137675-5.50601625 56.63756175-7.66873975 24.97619675-6.29400725 37.562794 22.22248 30.67921075 43.65838625-8.65231125 19.076185-20.844913 35.79264875-34.80766 51.91811925-10.816452 12.19260175-23.702089 14.16541375-35.9896465 10.028461-9.9179155-2.749465-19.07760225-8.84789175-28.91048275-23.0076365-4.325447-12.194019-8.061318-18.48802625-13.5687515-33.62992525-4.325447-13.962747 2.40223875-34.86435 25.95976825-41.298665zm243.88332505 0c-19.076185-3.34329275-37.56137675-5.50601625-56.63756175-7.66873975-24.97619675-6.29400725-37.562794 22.22248-30.67921075 43.65838625 8.65231125 19.076185 20.844913 35.79264875 34.80766 51.91811925 10.816452 12.19260175 23.702089 14.16541375 35.9896465 10.028461 9.9179155-2.749465 19.07760225-8.84789175 28.91048275-23.0076365 4.325447-12.194019 8.061318-18.48802625 13.5687515-33.62992525 4.325447-13.962747-2.40223875-34.86435-25.95976825-41.298665z"/>
    <g fill="none" stroke="#000" stroke-linejoin="round" stroke-width="9.09065342" transform="translate(-56.900914 224.16218) scale(1.41725)">
      <path d="m391.308 389.636 68.272 31.638c8.325 3.469 14.985 2.359 21.23.416 9.852-2.914 17.622-1.248 25.809 2.082 9.852 4.995 10.131 12.072 3.748 19.149-5.828 6.799-11.657 10.268-18.733 17.067-1.527 10.962-.556 21.092-5.413 31.222-6.105 8.88-12.627 7.354-22.895-2.082-10.407-8.049-6.661-16.929-21.647-29.973l-63.276-32.886M204.812 389.22c-22.757 12.072-43.432 23.311-69.519 33.302-21.231 5.273-20.398-7.77-46.2079.833-7.3544 5.828-7.2156 14.153-1.2488 20.397 6.9382 6.8 11.795 11.102 17.9007 17.069 1.943 8.603 2.22 15.957 3.33 26.225 4.163 12.628 13.321 11.934 21.23 5.829 3.469-4.302 7.771-8.187 10.407-12.905 3.608-6.244 7.632-13.321 12.489-19.149l62.859-33.303"/>
      <path stroke-linecap="square" d="M401.299 321.365c25.81-12.766 47.04-23.035 70.352-34.552 14.292-11.933 10.685-23.451 22.064-32.054 11.239-10.685 18.732-8.048 22.895-2.081 4.024 10.129 5.967 20.259 5.412 30.805 10.684 9.852 16.374 15.541 22.48 24.562.832 11.378-9.159 16.095-21.231 16.234-15.819 2.914-18.317-7.077-36.217 0l-94.497 44.542h0"/>
      <path d="M197.22 322.353c-26.1-12.756-47.784-22.274-73.59-36.501-14.031-11.186-9.517-23.844-26.4917-34.146-7.4571-3.728-12.8536-5.396-18.8389 4.71-3.8267 9.028-3.5323 18.643-4.121 27.965-6.6721 7.162-14.2273 11.382-19.722 20.311-7.9477 12.756 4.1209 16.975 10.5968 18.545 18.4463 4.611 25.1183-3.729 42.0928-.295 33.067 15.405 66.427 31.398 98.316 47.097"/>
    </g>
    <g fill="none" stroke="#000" transform="translate(-56.900914 224.16218) scale(1.41725)">
      <path stroke-width="4.54532671" d="M212.232 318.53c5.69 13.344 7.45 18.415 11.553 31.718 3.496 12.289 4.781 19.794 6.941 37.258m153.3603-69.711886c-5.69 13.344-7.45 18.415-11.553 31.718-3.496 12.289-4.781 19.794-6.941 37.258"/>
      <path stroke-width="3.63626146" d="M236.516 349.732c14.718 9.027 40.161 10.419 62.956 10.009 25.394-.129 47.133-1.963 61.409-10.597m-119.214 24.138c16.238 10.204 35.334 13.708 57.326 12.878 22.842-.556 40.351-2.478 56.001-13.172"/>
      <path stroke-width="4.54532671" d="M229.893 385.644c17.367 20.948 41.608 24.585 69.173 25.315 29.519 1.077 59.166-10.645 66.819-25.314"/>
      <path stroke-width="3.63626146" d="m241.444 354.256-.416 41.212m13.945-36.841-.208 44.126m15.194-42.253-.416 46.208m13.946-45.167-.209 46.832m15.403-46.416v46.832m14.57-47.04.208 46.832m12.90474-48.08103052.416 46M341.56 358.003l.208 44.126m13.529-49.538.417 41.628"/>
      <g stroke-width="9.09065342">
        <path stroke-linecap="round" stroke-linejoin="round" d="M171.498 235.561c-19.136-18.603-32.51-50.888-34.366-85.752-2.015-38.42 18.218-76.5701 48.537-98.3192 33.969-23.9094 90.766-30.522 126.082-28.7375 23.921.0166 77.206 12.4202 96.015 26.4277 32.994 23.9901 50.688 58.04 51.914 96.85 1.813 38.983-14.606 68.675-34.711 87.206"/>
        <path stroke-linejoin="round" d="M172.662 126.267c-7.752 6.782-6.774 16.977-5.378 32.192 1.102 11.56 8.478 22.939 8.866 33.5 2.712 22.285-3.876 44.57-6.977 62.786-2.132 20.928 3.877 38.95 11.628 45.926 7.751 6.88 17.756 9.729 28.268 12.936 9.551 2.498 14.504 6.842 21.728 12.228 8.606 9.137 10.659 16.694 10.465 25.996m183.7988-226.14539c7.752 6.782 6.774 16.977 5.378 32.192-1.102 11.56-8.478 22.939-8.866 33.5-2.712 22.285 3.876 44.57 6.977 62.786 2.132 20.928-3.877 38.95-11.628 45.926-7.751 6.88-21.937 10.575-28.268 12.936-7.377 2.581-14.92 7.258-21.728 12.644-8.19 7.888-10.659 16.278-10.465 25.58"/>
        <path d="M194.821 310.959c6.938 16.79 14.292 33.164 14.986 50.37-3.191 13.876-2.22 30.25 1.249 43.294 4.441 17.9 21.786 39.13 39.132 46.207 17.761 6.452 28.862 8.118 48.704 8.118"/>
        <path d="M401.9228 310.95896948c-6.938 16.79-14.292 33.164-14.986 50.37 3.191 13.876 2.22 30.25-1.249 43.294-4.441 17.9-21.994 38.506-39.34 45.583-17.345 7.077-28.445 8.742-48.288 8.742"/>
      </g>
    </g>
  </g>
</svg>